<svg xmlns="http://www.w3.org/2000/svg" width="22" height="15" viewBox="0 0 22 15" fill="none">
  <g clip-path="url(#clip0_37_48)">
    <mask id="mask0_37_48" style="mask-type:luminance" maskUnits="userSpaceOnUse" x="0" y="0" width="22" height="16">
      <path d="M21.5 0.132324H0.5V15.0073H21.5V0.132324Z" fill="white"/>
    </mask>
    <g mask="url(#mask0_37_48)">
      <path d="M9.99988 12.5284C10.1653 12.5284 10.3241 12.5929 10.4419 12.7079C10.5598 12.823 10.6272 12.9793 10.6299 13.1433C10.6286 13.2241 10.6112 13.3038 10.5789 13.3779C10.5466 13.4519 10.4998 13.519 10.4412 13.5752C10.3828 13.6314 10.3136 13.6756 10.238 13.7052C10.1622 13.7349 10.0813 13.7495 9.99988 13.7482C9.91894 13.7495 9.83853 13.7349 9.76336 13.7051C9.6882 13.6752 9.61977 13.6309 9.56211 13.5746C9.50436 13.5183 9.4586 13.4511 9.42727 13.3771C9.39604 13.3031 9.37994 13.2236 9.37994 13.1433C9.37994 13.0625 9.39595 12.9827 9.4271 12.908C9.45825 12.8335 9.50392 12.7657 9.5615 12.7085C9.61907 12.6515 9.68741 12.6061 9.76266 12.5753C9.83783 12.5444 9.9185 12.5284 9.99988 12.5284ZM19.6499 8.79981C19.4855 8.79981 19.3278 8.73504 19.2115 8.61974C19.0952 8.50443 19.0299 8.34805 19.0299 8.18498C19.0299 8.02192 19.0952 7.86553 19.2115 7.75023C19.3278 7.63492 19.4855 7.57015 19.6499 7.57015C19.8143 7.57015 19.9721 7.63492 20.0883 7.75023C20.2046 7.86553 20.2699 8.02192 20.2699 8.18498C20.2649 8.34647 20.198 8.49998 20.0828 8.61422C19.9675 8.72847 19.8127 8.79484 19.6499 8.79981ZM19.6499 6.32065C19.1477 6.318 18.6649 6.51262 18.3069 6.86198C17.9491 7.21133 17.7452 7.687 17.74 8.18498C17.7445 8.38055 17.7782 8.57437 17.8399 8.76015L11.5299 12.0327C11.338 11.7668 11.0806 11.5541 10.7822 11.4149C10.4838 11.2758 10.1545 11.2147 9.82566 11.2376C9.49675 11.2604 9.1792 11.3664 8.90336 11.5456C8.62752 11.7247 8.40255 11.9709 8.24991 12.2607L2.59991 9.37495C2.25673 9.13555 1.98348 8.8104 1.80787 8.43249C1.63225 8.05457 1.56051 7.63734 1.59991 7.22306C1.59325 7.04519 1.62867 6.86824 1.70334 6.70637C1.77801 6.54451 1.88985 6.40222 2.02991 6.2909C2.1899 6.19173 2.34991 6.22148 2.57991 6.2909L9.16991 9.67245C9.32805 9.74919 9.50375 9.78322 9.67927 9.77097C9.85489 9.75881 10.0241 9.70089 10.1699 9.60306L20.2699 4.45631C20.374 4.45804 20.4753 4.42311 20.5559 4.35774C20.6364 4.29238 20.691 4.20081 20.7099 4.09931C20.7038 4.01046 20.6736 3.9249 20.6226 3.85161C20.5715 3.77832 20.5015 3.72001 20.4199 3.68281C19.8299 3.42498 18.9399 3.00848 18.09 2.62173C16.2499 1.77881 14.1499 0.816897 13.2299 0.330981C12.9946 0.200711 12.7294 0.132324 12.4599 0.132324C12.1903 0.132324 11.9253 0.200711 11.6899 0.330981L11.4599 0.430148C7.28991 2.49281 1.77991 5.1604 1.45991 5.38848C1.15203 5.58718 0.899221 5.85916 0.724546 6.17961C0.549872 6.50007 0.458893 6.85879 0.459909 7.22306C0.415763 7.84946 0.541848 8.47613 0.825023 9.03772C1.1082 9.59939 1.5381 10.0754 2.06991 10.4162L8.06991 13.3912C8.14 13.8466 8.3742 14.2613 8.72908 14.5585C9.08396 14.8558 9.53543 15.0153 9.99988 15.0077C10.4968 15.0129 10.9756 14.823 11.3316 14.4792C11.6877 14.1354 11.892 13.6658 11.8999 13.1731L18.4699 9.7022C18.7086 9.88875 18.9886 10.0161 19.2868 10.0737C19.5851 10.1314 19.8928 10.1176 20.1846 10.0336C20.4764 9.94965 20.7437 9.79792 20.9645 9.5909C21.1853 9.38387 21.3531 9.12759 21.4539 8.8434C21.5548 8.55918 21.5858 8.2552 21.5445 7.95671C21.5031 7.65823 21.3904 7.37382 21.216 7.12714C21.0416 6.88046 20.8103 6.67859 20.5413 6.53833C20.2725 6.39807 19.9737 6.32344 19.6699 6.32065" fill="#242A40"/>
    </g>
  </g>
  <defs>
    <clipPath id="clip0_37_48">
      <rect width="21" height="14.875" fill="white" transform="translate(0.5 0.132324)"/>
    </clipPath>
  </defs>
</svg>