<svg xmlns="http://www.w3.org/2000/svg" width="22" height="17" viewBox="0 0 22 17" fill="none">
  <g clip-path="url(#clip0_37_40)">
    <path d="M6.45 2C5.66863 2 4.89492 2.16813 4.17303 2.49478C3.45115 2.82144 2.79522 3.30023 2.24271 3.90381C1.69021 4.50739 1.25193 5.22394 0.952917 6.01256C0.653901 6.80117 0.5 7.64641 0.5 8.5C0.5 9.35359 0.653901 10.1988 0.952917 10.9874C1.25193 11.7761 1.69021 12.4926 2.24271 13.0962C2.79522 13.6998 3.45115 14.1786 4.17303 14.5052C4.89492 14.8319 5.66863 15 6.45 15C7.23137 15 8.00508 14.8319 8.72697 14.5052C9.44885 14.1786 10.1048 13.6998 10.6573 13.0962C11.2098 12.4926 11.6481 11.7761 11.9471 10.9874C12.2461 10.1988 12.4 9.35359 12.4 8.5C12.4 7.64641 12.2461 6.80117 11.9471 6.01256C11.6481 5.22394 11.2098 4.50739 10.6573 3.90381C10.1048 3.30023 9.44885 2.82144 8.72697 2.49478C8.00508 2.16813 7.23137 2 6.45 2ZM15.9 2.76471C15.5323 2.76471 15.1682 2.91305 14.8285 3.20128C14.4888 3.4895 14.1801 3.91196 13.9201 4.44453C13.6601 4.97711 13.4538 5.60936 13.3131 6.3052C13.1724 7.00104 13.1 7.74683 13.1 8.5C13.1 9.25317 13.1724 9.99896 13.3131 10.6948C13.4538 11.3906 13.6601 12.0229 13.9201 12.5555C14.1801 13.088 14.4888 13.5105 14.8285 13.7987C15.1682 14.0869 15.5323 14.2353 15.9 14.2353C16.2677 14.2353 16.6318 14.0869 16.9715 13.7987C17.3112 13.5105 17.6199 13.088 17.8799 12.5555C18.1399 12.0229 18.3461 11.3906 18.4869 10.6948C18.6276 9.99896 18.7 9.25317 18.7 8.5C18.7 7.74683 18.6276 7.00104 18.4869 6.3052C18.3461 5.60936 18.1399 4.97711 17.8799 4.44453C17.6199 3.91196 17.3112 3.4895 16.9715 3.20128C16.6318 2.91305 16.2677 2.76471 15.9 2.76471ZM20.45 3.52941C20.1715 3.52941 19.9045 4.0531 19.7075 4.98526C19.5106 5.91743 19.4 7.18172 19.4 8.5C19.4 9.81828 19.5106 11.0826 19.7075 12.0147C19.9045 12.9469 20.1715 13.4706 20.45 13.4706C20.7285 13.4706 20.9955 12.9469 21.1925 12.0147C21.3894 11.0826 21.5 9.81828 21.5 8.5C21.5 7.18172 21.3894 5.91743 21.1925 4.98526C20.9955 4.0531 20.7285 3.52941 20.45 3.52941Z" fill="#242A40"/>
  </g>
  <defs>
    <clipPath id="clip0_37_40">
      <rect width="21" height="17" fill="white" transform="translate(0.5)"/>
    </clipPath>
  </defs>
</svg>