<svg xmlns="http://www.w3.org/2000/svg" width="12" height="12" viewBox="0 0 12 12" fill="none">
  <path d="M6.125 1C6.125 0.7643 5.96191 0.566692 5.74242 0.513866L5.74242 0.5L6.25758 0.5L6.25758 9.09091C6.25758 9.29314 6.3794 9.47546 6.56623 9.55285C6.75307 9.63024 6.96813 9.58746 7.11113 9.44446L10.9242 5.63135L11.2929 6L6 11.2929L0.707108 6L1.07576 5.63135L4.88887 9.44446C4.95536 9.51095 5.03743 9.55578 5.125 9.57693L5.125 10C5.125 10.2761 5.34886 10.5 5.625 10.5C5.90114 10.5 6.125 10.2761 6.125 10L6.125 1Z" stroke="#181D2F" stroke-linecap="round" stroke-linejoin="round"/>
</svg>