<svg xmlns="http://www.w3.org/2000/svg" width="32" height="32" viewBox="0 0 32 32" fill="none">
  <path fill-rule="evenodd" clip-rule="evenodd" d="M16 32C24.8366 32 32 24.8366 32 16C32 12.2446 30.7062 8.79142 28.54 6.06182C29.7368 7.7713 30.439 9.85243 30.439 12.0976C30.439 17.9168 25.7216 22.6342 19.9024 22.6342C14.0832 22.6342 9.36584 17.9168 9.36584 12.0976C9.36584 6.27838 14.0832 1.56099 19.9024 1.56099C22.1476 1.56099 24.2287 2.26319 25.9382 3.45996C23.2086 1.29379 19.7554 0 16 0C7.16344 0 0 7.16344 0 16C0 24.8366 7.16344 32 16 32Z" fill="black"/>
  <path d="M22.6341 3.12195L23.1749 8.04451L28.0975 8.58536L23.1749 9.12621L22.6341 14.0488L22.0932 9.12621L17.1707 8.58536L22.0932 8.04451L22.6341 3.12195Z" fill="black"/>
</svg>